# xmcd
# 
# Track frame offsets:
#     150
#     28698
#     50389
#     72775
#     95568
#     117500
#     138632
#     162182
# 
# Disc length: 2471
# 
# Revision: 0
# Processed by: cddbd v1.5.2PL0 Copyright (c) Steve Scherf et al.
# Submitted via: fre:ac v1.0.17
# 
DISCID=6d09a508
DTITLE=コトリンゴ - picnic album 1
DYEAR=2010
DGENRE=JPop
TTITLE0=恋とマシンガン
TTITLE1=渚
TTITLE2=シカゴ
TTITLE3=AXIA～かなしいことり～
TTITLE4=悲しくてやりきれない
TTITLE5=以心電信
TTITLE6=う、ふ、ふ、ふ、
TTITLE7=ノーサイド
EXTD=
EXTT0=
EXTT1=
EXTT2=
EXTT3=
EXTT4=
EXTT5=
EXTT6=
EXTT7=
PLAYORDER=
